<?xml version="1.0" encoding="UTF-8"?>
<svg id="Layer_1" data-name="Layer 1" xmlns="http://www.w3.org/2000/svg" xmlns:xlink="http://www.w3.org/1999/xlink" viewBox="0 0 512 512">
  <defs>
    <style>
      .cls-1 {
        fill: url(#linear-gradient);
      }

      .cls-1, .cls-2, .cls-3, .cls-4, .cls-5 {
        stroke-width: 0px;
      }

      .cls-2 {
        fill: #ffe6ea;
      }

      .cls-6 {
        opacity: 0;
      }
<svg xmlns="http://www.w3.org/2000/svg" width="24" height="24" viewBox="0 0 24 24" fill="none" stroke="currentColor" stroke-width="2" stroke-linecap="round" stroke-linejoin="round">
  <!-- Main circle representing a play button -->
  <circle cx="12" cy="12" r="10" fill="#4285F4" stroke="#2965C8" stroke-width="1"/>
  
  <!-- Play triangle in the center -->
  <path d="M10 8l6 4-6 4V8z" fill="white" stroke="white" stroke-width="1"/>
  
  <!-- Download arrow -->
  <path d="M12 16v5M9 19l3 2 3-2" stroke="white" stroke-width="2" stroke-linecap="round" stroke-linejoin="round"/>
  
  <!-- Connection lines representing media streaming -->
  <path d="M4 12h-1M21 12h-1" stroke="white" stroke-width="1.5" stroke-linecap="round"/>
  <path d="M7 7L6 6M17 7l1-1" stroke="white" stroke-width="1.5" stroke-linecap="round"/>
  <path d="M7 17l-1 1M17 17l1 1" stroke="white" stroke-width="1.5" stroke-linecap="round"/>
</svg>
      .cls-4 {
        fill: #fff;
      }

      .cls-5 {
        fill: #ffc8d1;
      }
    </style>
    <linearGradient id="linear-gradient" x1="256" y1="68" x2="256" y2="444" gradientUnits="userSpaceOnUse">
      <stop offset="0" stop-color="#ffa58d"/>
      <stop offset="1" stop-color="#fe6387"/>
    </linearGradient>
  </defs>
  <g class="cls-6">
    <rect class="cls-4" x=".5" y=".5" width="511" height="511"/>
    <path class="cls-3" d="m511,1v510H1V1h510m1-1H0v512h512V0h0Z"/>
  </g>
  <rect class="cls-1" x="35" y="68" width="442" height="376" rx="36.92" ry="36.92"/>
  <g>
    <circle class="cls-2" cx="94" cy="149.5" r="14"/>
    <circle class="cls-2" cx="94" cy="220.5" r="14"/>
    <circle class="cls-2" cx="94" cy="291.5" r="14"/>
    <circle class="cls-2" cx="94" cy="362.5" r="14"/>
  </g>
  <g>
    <rect class="cls-5" x="315.8" y="242.11" width="15.41" height="58.31"/>
    <path class="cls-5" d="m304.88,208.25c-6.39-6.19-15.01-9.38-23.77-9.38s-17.38,3.19-23.77,9.38c-6.3,6.11-10.9,15.59-10.9,29.14v38.53c0,4.26-3.46,7.71-7.71,7.71s-7.71-3.44-7.71-7.71v-38.53c0-17.27,5.98-30.89,15.58-40.21,9.51-9.22,22.07-13.73,34.5-13.73s25,4.51,34.5,13.73c9.59,9.32,15.59,22.93,15.59,40.21v4.72h-15.41v-4.72c0-13.55-4.61-23.03-10.91-29.14Z"/>
    <path class="cls-5" d="m357.83,298.42l-28.89,28.9c-3.01,3-7.89,3-10.9,0l-28.89-28.9c-2.96-3.05-2.87-7.94.19-10.88,2.98-2.89,7.72-2.89,10.7,0l15.74,15.73v-21.59h15.41v21.59l15.73-15.73c3.07-2.96,7.94-2.87,10.9.18,2.89,2.98,2.89,7.72,0,10.7Z"/>
  </g>
  <path class="cls-2" d="m285.65,246.36l-105.98-65.71c-7.55-4.68-17.31.75-17.31,9.63v131.42c0,8.88,9.76,14.32,17.31,9.63l105.98-65.71c7.15-4.43,7.15-14.83,0-19.27Z"/>
  <g>
    <circle class="cls-2" cx="415" cy="149.5" r="14"/>
    <circle class="cls-2" cx="415" cy="220.5" r="14"/>
    <circle class="cls-2" cx="415" cy="291.5" r="14"/>
    <circle class="cls-2" cx="415" cy="362.5" r="14"/>
  </g>
</svg>